# xmcd
#
# Track frame offsets: 
#        150
#        12056
#        30018
#        43404
#        59193
#        78646
#        95310
#        112212
#        126465
#        141271
#        155959
#        170290
#
# Disc length: 2501 seconds
#
# Revision: 2
# Processed by: cddbd v1.5.2PL0 Copyright (c) Steve Scherf et al.
# Submitted via: ExactAudioCopyFreeDBPlugin 1.0
#
DISCID=aa09c30c
DTITLE=Milionario and José Rico - Vol. 21 - Nasci Para
DYEAR=1900
DGENRE=Country
TTITLE0=Nasci para te Amar
TTITLE1=Amada Amante
TTITLE2=A Fossa
TTITLE3=Esse Meu coração Sem Juizo
TTITLE4=Meu pobre Coração
TTITLE5=Tu Y Las Nubes
TTITLE6=Heroi da Velocidade
TTITLE7=A Pé na Estrada
TTITLE8=Gangorra
TTITLE9=Direito de Chorar
TTITLE10=Faz um Ano
TTITLE11=Caboclo Nato
EXTD=
EXTT0=
EXTT1=
EXTT2=
EXTT3=
EXTT4=
EXTT5=
EXTT6=
EXTT7=
EXTT8=
EXTT9=
EXTT10=
EXTT11=
PLAYORDER=
